# xmcd CD database file
#
# Track frame offsets:
#	150
#	24932
#	51330
#	62690
#	91771
#	124639
#	144941
#	158990
#
# Disc length: 2436 seconds
#
# Revision: 0
# Processed by: cddbd v1.5.1PL2 Copyright (c) Steve Scherf et al.
# Submitted via: CDex 1.51
#
DISCID=5e098208
DTITLE=Joe Diorio - Solo Guitar
DYEAR=1975
DGENRE=Jazz
TTITLE0=Windows
TTITLE1=Nuages
TTITLE2=Poem
TTITLE3=Invitation
TTITLE4=India
TTITLE5=A Time for Love
TTITLE6=Call to the Center
TTITLE7=Without You
EXTD=YEAR: 1975
EXTT0=
EXTT1=
EXTT2=
EXTT3=
EXTT4=
EXTT5=
EXTT6=
EXTT7=
PLAYORDER=
